<?xml version="1.0" standalone="no"?><!DOCTYPE svg PUBLIC "-//W3C//DTD SVG 1.1//EN" "http://www.w3.org/Graphics/SVG/1.1/DTD/svg11.dtd"><svg t="1585029968309" class="icon" viewBox="0 0 1024 1024" version="1.1" xmlns="http://www.w3.org/2000/svg" p-id="4516" xmlns:xlink="http://www.w3.org/1999/xlink" width="200" height="200"><defs><style type="text/css"></style></defs><path d="M512 56.888889C261.063111 56.888889 56.888889 261.063111 56.888889 512s204.174222 455.111111 455.111111 455.111111 455.111111-204.174222 455.111111-455.111111-204.174222-455.111111-455.111111-455.111111m0-56.888889a512 512 0 1 1 0 1024A512 512 0 0 1 512 0z" fill="#2c2c2c" p-id="4517"></path><path d="M287.118222 323.697778h267.036445q38.172444-55.637333 68.266666-107.576889l47.047111 24.462222q-30.549333 41.870222-62.577777 83.114667h129.991111v249.344h-48.867556V546.133333H335.985778v26.908445h-48.867556z m400.896 43.975111H335.985778v134.428444h352.028444z m-323.299555 237.112889h47.672889v106.951111q0 47.672889 42.780444 47.672889h122.823111a43.008 43.008 0 0 0 45.226667-36.920889 472.803556 472.803556 0 0 0 10.979555-68.266667q17.749333 7.964444 47.047111 18.318222a552.675556 552.675556 0 0 1-17.692444 76.515556 78.904889 78.904889 0 0 1-83.285333 53.077333H445.383111a71.850667 71.850667 0 0 1-80.668444-81.806222z m-95.345778-4.266667l45.852444 14.677333a1322.268444 1322.268444 0 0 1-63.544889 157.070223l-44.600888-19.569778a1187.953778 1187.953778 0 0 0 62.293333-152.177778z m406.983111 21.390222l34.759111-26.908444q56.206222 62.577778 105.699556 125.155555l-40.96 32.369778q-43.235556-60.928-99.441778-130.616889z m-216.917333-37.888l37.262222-24.462222a881.208889 881.208889 0 0 1 80.099555 97.792l-40.96 28.444445a1127.992889 1127.992889 0 0 0-76.401777-101.774223zM354.929778 239.957333l37.262222-23.836444A741.262222 741.262222 0 0 1 458.24 295.822222l-41.528889 26.908445Q390.371556 284.444444 354.929778 239.957333z" fill="#2c2c2c" p-id="4518"></path></svg>